# Blender v2.79 (sub 0) OBJ File: ''
# www.blender.org
mtllib Road.mtl
o BezierCurve_CUBezierCurve.003
v -6.976104 0.000000 3.284139
v -6.831952 0.000000 3.124035
v -6.654002 0.000000 2.901981
v -6.449014 0.000000 2.630368
v -6.223746 0.000000 2.321585
v -5.984960 0.000000 1.988022
v -5.739414 0.000000 1.642070
v -5.493868 0.000000 1.296117
v -5.255081 0.000000 0.962555
v -5.029814 0.000000 0.653772
v -4.824825 0.000000 0.382159
v -4.646875 0.000000 0.160105
v -4.502723 0.000000 0.000000
v -4.308514 0.000000 -0.105035
v -3.990947 0.000000 -0.173611
v -3.572610 0.000000 -0.210937
v -3.076091 0.000000 -0.222222
v -2.523979 0.000000 -0.212674
v -1.938861 0.000000 -0.187500
v -1.343327 0.000000 -0.151910
v -0.759965 0.000000 -0.111111
v -0.211362 0.000000 -0.070312
v 0.279892 0.000000 -0.034722
v 0.691209 0.000000 -0.009548
v 1.000000 0.000000 0.000000
v 1.318838 0.000000 0.052326
v 1.759155 0.000000 0.196990
v 2.296655 0.000000 0.415527
v 2.907042 0.000000 0.689467
v 3.566020 0.000000 1.000342
v 4.249294 0.000000 1.329686
v 4.932569 0.000000 1.659029
v 5.591547 0.000000 1.969905
v 6.201934 0.000000 2.243845
v 6.739434 0.000000 2.462381
v 7.179750 0.000000 2.607046
v 7.498589 0.000000 2.659371
v -6.976104 0.000000 4.746074
v -6.831952 0.000000 4.574761
v -6.654002 0.000000 4.321720
v -6.449014 0.000000 4.003296
v -6.223746 0.000000 3.635836
v -5.984960 0.000000 3.235683
v -5.739414 0.000000 2.819186
v -5.493868 0.000000 2.402688
v -5.255081 0.000000 2.002536
v -5.029814 0.000000 1.635075
v -4.824825 0.000000 1.316651
v -4.646875 0.000000 1.063610
v -4.502723 0.000000 0.892298
v -4.308514 0.000000 0.787263
v -3.990947 0.000000 0.718686
v -3.572610 0.000000 0.681360
v -3.076091 0.000000 0.670075
v -2.523979 0.000000 0.679624
v -1.938861 0.000000 0.704798
v -1.343327 0.000000 0.740388
v -0.759965 0.000000 0.781186
v -0.211362 0.000000 0.821985
v 0.279892 0.000000 0.857575
v 0.691209 0.000000 0.882749
v 1.000000 0.000000 0.892298
v 1.318838 0.000000 0.944623
v 1.759155 0.000000 1.089288
v 2.296655 0.000000 1.307824
v 2.907042 0.000000 1.581764
v 3.566020 0.000000 1.892640
v 4.249294 0.000000 2.221983
v 4.932569 0.000000 2.551327
v 5.591547 0.000000 2.862202
v 6.201934 0.000000 3.136142
v 6.739434 0.000000 3.354679
v 7.179750 0.000000 3.499343
v 7.498589 0.000000 3.551669
vn 0.0000 1.0000 0.0000
usemtl None
s off
f 2//1 1//1 38//1 39//1
f 3//1 2//1 39//1 40//1
f 4//1 3//1 40//1 41//1
f 5//1 4//1 41//1 42//1
f 6//1 5//1 42//1 43//1
f 7//1 6//1 43//1 44//1
f 8//1 7//1 44//1 45//1
f 9//1 8//1 45//1 46//1
f 10//1 9//1 46//1 47//1
f 11//1 10//1 47//1 48//1
f 12//1 11//1 48//1 49//1
f 13//1 12//1 49//1 50//1
f 14//1 13//1 50//1 51//1
f 15//1 14//1 51//1 52//1
f 16//1 15//1 52//1 53//1
f 17//1 16//1 53//1 54//1
f 18//1 17//1 54//1 55//1
f 19//1 18//1 55//1 56//1
f 20//1 19//1 56//1 57//1
f 21//1 20//1 57//1 58//1
f 22//1 21//1 58//1 59//1
f 23//1 22//1 59//1 60//1
f 24//1 23//1 60//1 61//1
f 25//1 24//1 61//1 62//1
f 26//1 25//1 62//1 63//1
f 27//1 26//1 63//1 64//1
f 28//1 27//1 64//1 65//1
f 29//1 28//1 65//1 66//1
f 30//1 29//1 66//1 67//1
f 31//1 30//1 67//1 68//1
f 32//1 31//1 68//1 69//1
f 33//1 32//1 69//1 70//1
f 34//1 33//1 70//1 71//1
f 35//1 34//1 71//1 72//1
f 36//1 35//1 72//1 73//1
f 37//1 36//1 73//1 74//1
