# This file uses meters as units for non-parametric coordinates.

mtllib Object_Needle_01.mtl
g default
v 0.423882 -0.106614 20.538924
v 1.387050 -8.025458 -0.765783
v 3.771756 0.054331 20.512116
v 3.348046 -7.929090 -0.779487
v 2.611089 7.940136 -0.680806
v 2.996252 0.055701 -8.673269
v 0.650120 7.843765 -0.667082
v 1.035297 -0.040629 -8.659593
v 3.416261 5.679023 9.788257
v 3.819162 -5.074190 -6.009814
v 0.823103 -5.231191 -5.954945
v 0.196189 5.518053 9.821263
v 0.713131 -5.612542 9.732666
v 0.000000 0.000006 -0.518935
v 0.334496 5.294927 -5.958215
v 3.330515 5.451941 -6.013102
v 5.148959 0.346562 -0.878875
v 3.933183 -5.451582 9.699686
v 2.033619 0.599256 52.713001
v 2.877462 0.645213 52.713568
v 2.366213 -0.547138 63.226189
v 2.788489 -0.527408 63.216929
v 2.135741 -1.625523 53.196605
v 2.979598 -1.579553 53.197143
v 2.918868 -0.719265 53.009886
v 1.966068 -0.652880 52.983629
v 2.356524 -0.148029 61.496921
v 2.586446 -0.546362 63.793784
v 2.766350 -0.128863 61.486083
v -0.142428 3.106173 2.822919
v 0.324741 -2.259216 14.906819
v 0.120654 2.136401 14.918070
v 0.335893 7.223594 -3.139750
v 3.068845 7.362447 -3.174600
v 4.578673 3.397001 2.586051
v 4.047139 -2.074390 14.868198
v 3.843059 2.321244 14.879419
v 2.392805 -0.947919 61.847327
v 2.573435 -1.738511 53.226548
v 2.802652 -0.928729 61.836480
v 1.129199 2.392806 32.404087
v 3.130897 2.490685 32.408528
v 1.952872 0.027861 52.835890
v 2.216242 -0.534044 61.018391
v 2.850032 0.137665 52.823245
v 3.711405 -1.251664 32.659112
v 2.020766 -1.451127 53.157370
v 3.391652 -3.145526 32.782368
v 1.525063 -3.853908 32.820413
v 2.917926 -1.341313 53.144737
v 2.901179 -0.501830 60.986208
v 0.989173 -1.407615 32.654558
v 2.328135 -6.417840 11.851927
v 1.007111 -7.488311 1.775393
v 2.367665 -8.631433 -0.833623
v 3.740090 -7.349464 1.740556
v 4.558621 3.321479 -3.894216
v 4.839723 -2.732659 -3.904380
v 3.529554 -2.310322 -8.038510
v 3.303760 2.553441 -8.049490
v 1.697624 6.105271 -6.722305
v 1.989261 -0.042876 -9.324298
v 0.570836 2.414631 -8.014672
v -0.084484 3.034263 -3.657160
v 0.796575 -2.449168 -8.003673
v 0.196550 -3.019911 -3.667314
v 2.255458 -5.911487 -6.714557
v 0.318914 7.329284 1.908824
v 1.734062 6.375399 11.913040
v 3.051838 7.468085 1.873994
v 1.574978 8.437772 -0.727462
v 4.868410 -2.840193 2.519735
v 3.744133 -7.180546 -3.223800
v 1.011140 -7.319386 -3.188966
v 0.147267 -3.131062 2.756625
v 2.457212 0.793305 52.676221
v 2.332215 -8.044503 2.587048
v 4.355867 0.238387 -6.401167
v 1.833595 3.273167 -8.601617
v 0.140960 -0.005049 -6.245810
v 2.134617 -3.211894 -8.586953
v 1.588682 7.963474 2.741610
v 4.605163 -5.420440 -0.806835
v 2.337605 -7.819226 -4.032137
v 0.390270 -5.663886 -0.651481
v 2.570044 -0.094800 61.879883
v -0.045460 0.000808 6.211628
v -0.131987 5.582627 -0.581524
v 1.611353 7.822581 -3.989836
v 4.082879 5.826075 -0.736897
v 4.481434 0.258752 6.057000
v 2.611279 -1.003752 62.278073
v 2.102810 3.176848 32.357587
v 2.203008 -0.232166 60.816630
v 3.561439 0.308959 32.555060
v 2.230496 -0.838145 61.082092
v 2.524620 -4.407596 32.826725
v 3.556927 -2.469569 32.642159
v 2.889259 -0.199905 60.785448
v 2.916760 -0.805858 61.050899
v 0.862056 0.163911 32.549912
v 1.011066 -3.056769 32.763532
vt 0.621821 0.660453
vt 0.621136 0.615502
vt 0.732568 0.714926
vt 0.723524 0.741316
vt 0.664957 0.617619
vt 0.744660 0.719636
vt 0.719928 0.727241
vt 0.770157 0.752715
vt 0.760140 0.768310
vt 0.773255 0.756821
vt 0.756832 0.767090
vt 0.635198 0.962583
vt 0.642200 0.913013
vt 0.703690 0.915694
vt 0.690867 0.960880
vt 0.650439 0.847554
vt 0.716600 0.856513
vt 0.767439 0.861856
vt 0.752273 0.913880
vt 0.730261 0.947470
vt 0.965055 0.637357
vt 0.992110 0.634555
vt 0.987868 0.691278
vt 0.962108 0.692482
vt 0.631191 0.991378
vt 0.689391 0.988075
vt 0.742716 0.962412
vt 0.961875 0.742827
vt 0.947630 0.730576
vt 0.846495 0.648610
vt 0.914452 0.642225
vt 0.916610 0.704453
vt 0.855825 0.716180
vt 0.914502 0.752198
vt 0.862509 0.766452
vt 0.796551 0.865320
vt 0.779353 0.918938
vt 0.866050 0.793419
vt 0.918766 0.777762
vt 0.927253 0.553068
vt 0.889428 0.535007
vt 0.890974 0.509266
vt 0.939475 0.540280
vt 0.774593 0.479854
vt 0.762686 0.438599
vt 0.504718 0.886051
vt 0.438796 0.754693
vt 0.480911 0.767371
vt 0.532391 0.884821
vt 0.535440 0.936117
vt 0.549155 0.923720
vt 0.657864 0.775561
vt 0.721515 0.792896
vt 0.767950 0.806840
vt 0.808348 0.765326
vt 0.810977 0.791204
vt 0.795333 0.809165
vt 0.775729 0.655208
vt 0.793129 0.719571
vt 0.124334 0.190122
vt 0.118972 0.194672
vt 0.038047 0.074567
vt 0.044174 0.077730
vt 0.211094 0.104318
vt 0.206348 0.109933
vt 0.096037 0.026702
vt 0.093270 0.020384
vt 0.071562 0.014122
vt 0.064504 0.007101
vt 0.025113 0.045725
vt 0.031922 0.053000
vt 0.836208 0.577993
vt 0.764125 0.582912
vt 0.679011 0.470827
vt 0.635448 0.524740
vt 0.588273 0.442242
vt 0.949676 0.586611
vt 0.902111 0.581183
vt 0.583799 0.946518
vt 0.578835 0.973432
vt 0.975421 0.583115
vt 0.579695 0.834174
vt 0.580897 0.899010
vt 0.448066 0.579570
vt 0.529471 0.629045
vt 0.585369 0.760953
vt 0.474356 0.671423
vt 0.082502 0.033327
vt 0.075238 0.030799
vt 0.177224 0.131934
vt 0.171705 0.136450
vt 0.048252 0.057397
vt 0.151273 0.156765
vt 0.146621 0.161829
vt 0.050802 0.064663
vt 0.286728 0.468056
vt 0.302218 0.456264
vt 0.469086 0.293488
vt 0.481066 0.277870
vt 0.198996 0.115609
vt 0.102687 0.035433
vt 0.190233 0.122213
vt 0.097165 0.036755
vt 0.328236 0.432805
vt 0.346461 0.416156
vt 0.129410 0.183697
vt 0.179913 0.129942
vt 0.093259 0.039610
vt 0.386662 0.379511
vt 0.399232 0.366666
vt 0.368737 0.395616
vt 0.361635 0.404237
vt 0.144164 0.164936
vt 0.137979 0.172821
vt 0.052685 0.084983
vt 0.054172 0.079498
vt 0.057118 0.075641
vt 0.444916 0.319321
vt 0.427702 0.337235
vt 0.409760 0.356048
vn 0.929852 -0.356805 0.089809
vn 0.155870 -0.981306 0.112886
vn 0.047676 -0.981523 0.185310
vn 0.882010 -0.463078 0.087273
vn -0.904090 -0.421957 0.067625
vn -0.893875 -0.442786 0.070205
vn -0.760506 -0.648990 -0.021023
vn 0.050688 -0.997999 -0.037790
vn 0.755280 -0.655075 -0.020694
vn 0.810021 0.436620 -0.391446
vn 0.970655 0.192619 -0.143968
vn 0.958681 0.045065 -0.280890
vn 0.799182 0.250333 -0.546481
vn 0.998844 0.047233 -0.008882
vn 0.985285 -0.095828 -0.141526
vn 0.856606 -0.344141 -0.384439
vn 0.826242 -0.176818 -0.534845
vn 0.702476 0.032709 -0.710956
vn -0.914660 0.264886 -0.305339
vn -0.044157 0.709539 -0.703281
vn -0.034105 0.445500 -0.894632
vn -0.895811 0.129637 -0.425108
vn -0.008780 -0.007813 -0.999931
vn -0.788260 -0.036363 -0.614267
vn -0.998860 -0.046243 -0.011801
vn -0.998034 0.012173 -0.061477
vn -0.990164 -0.045795 -0.132206
vn -0.992794 -0.102906 -0.061412
vn -0.882584 -0.214937 -0.418148
vn -0.890479 -0.339140 -0.303365
vn 0.027834 -0.703237 -0.710410
vn 0.012799 -0.462320 -0.886621
vn -0.794456 0.607165 -0.013800
vn -0.925595 0.372088 0.069456
vn -0.050555 0.982639 0.178506
vn -0.049586 0.998467 -0.024604
vn -0.938496 0.336329 0.078155
vn -0.049721 0.985801 0.160390
vn 0.884325 0.455887 0.100680
vn 0.817744 0.568653 0.089046
vn 0.648635 0.760992 -0.012780
vn 0.992691 -0.104444 0.060458
vn 0.974016 -0.226212 -0.011046
vn 0.847010 -0.484679 -0.218313
vn -0.871994 -0.454010 -0.183032
vn 0.037959 -0.879227 -0.474888
vn -0.992555 -0.121048 0.013485
vn -0.984008 -0.177796 -0.010808
vn 0.711035 0.699277 0.073758
vn -0.046524 0.992828 0.110127
vn -0.052352 0.987391 0.149393
vn 0.510580 0.855078 0.090278
vn -0.904553 0.419355 0.076979
vn -0.566117 0.818363 0.098961
vn -0.948193 0.094523 0.303306
vn -0.076464 0.192717 0.978271
vn 0.946737 0.168811 0.274210
vn -0.999442 0.030443 0.013764
vn -0.998728 -0.046480 0.019551
vn -0.997892 0.047595 0.044112
vn -0.987026 -0.156485 0.035952
vn -0.998257 -0.045446 0.037663
vn -0.906180 0.388516 -0.167011
vn -0.995834 0.090669 -0.009717
vn 0.781015 0.590426 -0.203501
vn -0.052479 0.901167 -0.430283
vn 0.977417 0.201747 0.062883
vn 0.943557 0.331093 -0.008784
vn 0.999380 0.027331 0.022207
vn 0.998391 -0.037869 0.042218
vn 0.996268 0.045700 0.073219
vn 0.989989 0.133671 0.045321
vn -0.465045 -0.880512 0.091827
vn 0.047331 -0.986275 0.158184
vn -0.597746 -0.795069 0.102789
vn 0.235950 -0.965442 0.110678
vn 0.792840 -0.605529 0.068847
vn 0.587024 -0.805486 0.081207
vn -0.047105 0.988629 0.142809
vn 0.867335 0.492368 0.072826
vn -0.911304 0.402464 0.086880
vn -0.997549 0.046792 0.052033
vn -0.988122 0.147442 0.043299
vn -0.998132 -0.037876 0.047927
vn -0.998752 -0.029041 0.040625
vn 0.989209 0.142937 0.032158
vn 0.999603 0.013568 0.024706
vn 0.996849 0.076169 0.022159
vn -0.974843 -0.214363 0.061072
vn -0.952943 -0.298336 0.053812
vn 0.207506 -0.972535 0.105439
vn -0.774841 -0.627422 0.077228
vn 0.881329 -0.468764 0.059336
vn 0.996023 -0.084370 0.028650
vn 0.999148 0.036839 0.018622
vn 0.998515 0.048970 0.023869
vn 0.994085 0.108322 0.007847
vn 0.998689 0.050018 0.010888
vn 0.998804 -0.046511 0.015062
vn -0.997439 0.050134 0.051001
vn -0.998122 -0.042333 0.044277
vn -0.982263 -0.181282 0.047918
s 1
g Needle full_gauge1
usemtl initialShadingGroup
f 18/1/1 53/2/2 77/3/3 56/4/4
f 53/2/2 13/5/5 54/6/6 77/7/3
f 77/7/3 54/6/6 2/8/7 55/9/8
f 56/4/4 77/3/3 55/10/8 4/11/9
f 16/12/10 57/13/11 78/14/12 60/15/13
f 57/13/11 17/16/14 58/17/15 78/14/12
f 78/14/12 58/17/15 10/18/16 59/19/17
f 60/15/13 78/14/12 59/19/17 6/20/18
f 15/21/19 61/22/20 79/23/21 63/24/22
f 61/25/20 16/12/10 60/15/13 79/26/21
f 79/26/21 60/15/13 6/20/18 62/27/23
f 63/24/22 79/23/21 62/28/23 8/29/24
f 14/30/25 64/31/26 80/32/27 66/33/28
f 64/31/26 15/21/19 63/24/22 80/32/27
f 80/32/27 63/24/22 8/29/24 65/34/29
f 66/33/28 80/32/27 65/34/29 11/35/30
f 10/18/16 67/36/31 81/37/32 59/19/17
f 67/38/31 11/35/30 65/34/29 81/39/32
f 81/39/32 65/34/29 8/29/24 62/28/23
f 59/19/17 81/37/32 62/27/23 6/20/18
f 7/40/33 68/41/34 82/42/35 71/43/36
f 68/41/34 12/44/37 69/45/38 82/42/35
f 82/46/35 69/47/38 9/48/39 70/49/40
f 71/50/36 82/46/35 70/49/40 5/51/41
f 17/16/14 72/52/42 83/53/43 58/17/15
f 72/52/42 18/1/1 56/4/4 83/53/43
f 83/53/43 56/4/4 4/11/9 73/54/44
f 58/17/15 83/53/43 73/54/44 10/18/16
f 2/8/7 74/55/45 84/56/46 55/9/8
f 74/55/45 11/35/30 67/38/31 84/56/46
f 84/57/46 67/36/31 10/18/16 73/54/44
f 55/10/8 84/57/46 73/54/44 4/11/9
f 13/5/5 75/58/47 85/59/48 54/6/6
f 75/58/47 14/30/25 66/33/28 85/59/48
f 85/59/48 66/33/28 11/35/30 74/55/45
f 54/6/6 85/59/48 74/55/45 2/8/7
f 20/60/49 76/61/50 86/62/51 29/63/52
f 76/64/50 19/65/53 27/66/54 86/67/51
f 86/67/51 27/66/54 21/68/55 28/69/56
f 29/63/52 86/62/51 28/70/56 22/71/57
f 12/44/37 30/72/58 87/73/59 32/74/60
f 30/72/58 14/30/25 75/58/47 87/73/59
f 87/73/59 75/58/47 13/5/5 31/75/61
f 32/74/60 87/73/59 31/75/61 1/76/62
f 7/40/33 33/77/63 88/78/64 68/41/34
f 33/77/63 15/21/19 64/31/26 88/78/64
f 88/78/64 64/31/26 14/30/25 30/72/58
f 68/41/34 88/78/64 30/72/58 12/44/37
f 5/51/41 34/79/65 89/80/66 71/50/36
f 34/79/65 16/12/10 61/25/20 89/80/66
f 89/81/66 61/22/20 15/21/19 33/77/63
f 71/43/36 89/81/66 33/77/63 7/40/33
f 9/48/39 35/82/67 90/83/68 70/49/40
f 35/82/67 17/16/14 57/13/11 90/83/68
f 90/83/68 57/13/11 16/12/10 34/79/65
f 70/49/40 90/83/68 34/79/65 5/51/41
f 3/84/69 36/85/70 91/86/71 37/87/72
f 36/85/70 18/1/1 72/52/42 91/86/71
f 91/86/71 72/52/42 17/16/14 35/82/67
f 37/87/72 91/86/71 35/82/67 9/48/39
f 21/68/55 38/88/73 92/89/74 28/69/56
f 38/88/73 23/90/75 39/91/76 92/89/74
f 92/92/74 39/93/76 24/94/77 40/95/78
f 28/70/56 92/92/74 40/95/78 22/71/57
f 9/48/39 69/47/38 93/96/79 42/97/80
f 69/45/38 12/44/37 41/98/81 93/99/79
f 93/99/79 41/98/81 19/65/53 76/64/50
f 42/97/80 93/96/79 76/61/50 20/60/49
f 19/65/53 43/100/82 94/101/83 27/66/54
f 26/102/84 44/103/85 94/101/83 43/100/82
f 21/68/55 27/66/54 94/101/83 44/103/85
f 3/84/69 37/87/72 95/104/86 46/105/87
f 37/87/72 9/48/39 42/97/80 95/104/86
f 45/106/88 42/97/80 20/60/49
f 46/105/87 95/104/86 45/106/88
f 26/102/84 47/107/89 96/108/90 44/103/85
f 23/90/75 38/88/73 96/108/90 47/107/89
f 21/68/55 44/103/85 96/108/90 38/88/73
f 13/5/5 53/2/2 97/109/91 49/110/92
f 53/2/2 18/1/1 48/111/93 97/109/91
f 97/109/91 48/111/93 24/94/77 39/93/76
f 49/110/92 97/109/91 39/91/76 23/90/75
f 18/1/1 36/85/70 98/112/94 48/111/93
f 36/85/70 3/84/69 46/105/87 98/112/94
f 50/113/95 46/105/87 25/114/96
f 48/111/93 98/112/94 50/113/95
f 25/114/96 45/106/88 99/115/97 51/116/98
f 20/60/49 29/63/52 99/115/97 45/106/88
f 22/71/57 51/116/98 99/115/97 29/63/52
f 24/94/77 50/113/95 100/117/99 40/95/78
f 25/114/96 51/116/98 100/117/99 50/113/95
f 22/71/57 40/95/78 100/117/99 51/116/98
f 12/44/37 32/74/60 101/118/100 41/98/81
f 32/74/60 1/76/62 52/119/101 101/118/100
f 101/118/100 52/119/101 26/102/84 43/100/82
f 41/98/81 101/118/100 43/100/82 19/65/53
f 1/76/62 31/75/61 102/120/102 52/119/101
f 31/75/61 13/5/5 49/110/92 102/120/102
f 102/120/102 49/110/92 23/90/75 47/107/89
f 52/119/101 102/120/102 47/107/89 26/102/84
f 95/104/86 42/97/80 45/106/88
f 46/105/87 45/106/88 25/114/96
f 98/112/94 46/105/87 50/113/95
f 48/111/93 50/113/95 24/94/77
